<svg xmlns="http://www.w3.org/2000/svg" viewBox="0 0 64 64" width="64" height="64">
  <defs>
    <linearGradient id="skyGrad" x1="0%" y1="0%" x2="100%" y2="100%">
      <stop offset="0%" stop-color="#0f172a"/>
      <stop offset="100%" stop-color="#1e293b"/>
    </linearGradient>
    <linearGradient id="cloudGrad" x1="0%" y1="0%" x2="0%" y2="100%">
      <stop offset="0%" stop-color="#38b2ac"/>
      <stop offset="100%" stop-color="#0f766e"/>
    </linearGradient>
    <linearGradient id="boltGrad" x1="0%" y1="0%" x2="100%" y2="100%">
      <stop offset="0%" stop-color="#f59e0b"/>
      <stop offset="100%" stop-color="#ef4444"/>
    </linearGradient>
  </defs>
  <!-- Background circle -->
  <rect width="64" height="64" rx="16" fill="url(#skyGrad)"/>
  <rect width="62" height="62" x="1" y="1" rx="15" fill="none" stroke="#334155" stroke-width="2"/>
  
  <!-- Radar pulse ring -->
  <circle cx="32" cy="30" r="22" fill="none" stroke="#14b8a6" stroke-width="1" stroke-dasharray="3 3" opacity="0.4"/>
  <circle cx="32" cy="30" r="14" fill="none" stroke="#14b8a6" stroke-width="1" stroke-dasharray="2 2" opacity="0.6"/>

  <!-- Cloud shape -->
  <path d="M 22 38 C 17 38 14 34 15.5 29.5 C 16.5 26 20 24 23.5 24.5 C 25.5 20.5 30 18 35 19.5 C 39.5 20.8 42.5 24.5 42 29 C 45.5 29.5 48 32.5 47.5 36 C 47 39.5 44 42 40.5 42 L 22 42 C 18 42 16 40 16 38 Z" fill="url(#cloudGrad)"/>
  
  <!-- Lightning bolt -->
  <polygon points="34,36 28,45 32,45 29,54 39,43 34,43" fill="url(#boltGrad)"/>
</svg>
